<svg width="417" height="176" viewBox="0 0 417 176" fill="none" xmlns="http://www.w3.org/2000/svg">
<g clip-path="url(#clip0_2_2)">
<path d="M333.84 75.8V28.87C333.84 28.4934 333.99 28.1322 334.256 27.8659C334.522 27.5996 334.883 27.45 335.26 27.45H342.32C342.696 27.4526 343.055 27.6031 343.321 27.8688C343.587 28.1345 343.737 28.4942 343.74 28.87V48.04L343.87 48.1C346.578 45.7421 350.049 44.4454 353.64 44.45C355.19 44.3753 356.739 44.6269 358.186 45.1885C359.633 45.75 360.946 46.609 362.04 47.71C363.907 49.71 364.84 52.88 364.84 57.22V75.8C364.84 76.1766 364.69 76.5378 364.424 76.8041C364.158 77.0704 363.797 77.22 363.42 77.22H356.36C355.984 77.2174 355.625 77.0669 355.359 76.8012C355.093 76.5355 354.943 76.1758 354.94 75.8V58.85C354.94 56.7167 354.57 55.2167 353.83 54.35C353.404 53.8846 352.88 53.5208 352.295 53.2854C351.71 53.05 351.079 52.9491 350.45 52.99C348.226 53.0699 346.084 53.8504 344.33 55.22C344.147 55.3535 343.999 55.528 343.896 55.7295C343.794 55.9311 343.74 56.1539 343.74 56.38V75.11C343.74 76.74 343.25 77.22 342.65 77.22H335.26C334.883 77.22 334.522 77.0704 334.256 76.8041C333.99 76.5378 333.84 76.1766 333.84 75.8Z" fill="#09CC7F"/>
<path d="M331.17 138.24V90.95C331.169 90.7632 331.204 90.5779 331.275 90.405C331.346 90.2321 331.451 90.0751 331.583 89.9429C331.715 89.8108 331.872 89.7063 332.045 89.6354C332.218 89.5645 332.403 89.5287 332.59 89.53H339.65C340.027 89.53 340.388 89.6796 340.654 89.9459C340.92 90.2122 341.07 90.5734 341.07 90.95V110.11L341.2 110.18C343.908 107.822 347.379 106.525 350.97 106.53C352.52 106.455 354.069 106.707 355.516 107.268C356.963 107.83 358.276 108.689 359.37 109.79C361.243 111.79 362.177 114.96 362.17 119.3V138.24C362.17 138.382 362.142 138.522 362.088 138.653C362.033 138.784 361.954 138.903 361.854 139.004C361.753 139.104 361.634 139.184 361.503 139.238C361.372 139.292 361.232 139.32 361.09 139.32H353.36C353.217 139.321 353.076 139.294 352.944 139.241C352.811 139.187 352.691 139.108 352.59 139.007C352.488 138.907 352.408 138.787 352.353 138.656C352.298 138.524 352.27 138.383 352.27 138.24V120.93C352.27 118.803 351.9 117.303 351.16 116.43C350.735 115.963 350.211 115.597 349.626 115.36C349.041 115.123 348.41 115.02 347.78 115.06C345.555 115.144 343.413 115.928 341.66 117.3C341.476 117.432 341.327 117.607 341.224 117.808C341.122 118.01 341.069 118.234 341.07 118.46V138.24C341.07 138.383 341.042 138.524 340.987 138.656C340.932 138.787 340.851 138.907 340.75 139.007C340.649 139.108 340.529 139.187 340.396 139.241C340.264 139.294 340.123 139.321 339.98 139.32H332.25C331.963 139.32 331.689 139.206 331.486 139.004C331.284 138.801 331.17 138.526 331.17 138.24Z" fill="#09CC7F"/>
<path d="M0 0H144.62V109.43C144.62 126.884 137.686 143.623 125.345 155.965C113.003 168.306 96.2639 175.24 78.81 175.24H65.81C48.3561 175.24 31.6171 168.306 19.2753 155.965C6.93353 143.623 0 126.884 0 109.43L0 0Z" fill="#09CC7F"/>
<path d="M171.12 75.8V31.48C171.119 31.2932 171.154 31.1079 171.225 30.935C171.296 30.7621 171.401 30.6051 171.533 30.4729C171.665 30.3408 171.822 30.2363 171.995 30.1654C172.168 30.0945 172.353 30.0587 172.54 30.06H185.9C199.447 30.06 206.223 34.7933 206.23 44.26C206.287 47.149 205.418 49.9803 203.75 52.34C202.347 54.2722 200.437 55.7779 198.23 56.69C198.042 56.7731 197.875 56.8965 197.74 57.0514C197.605 57.2064 197.506 57.3891 197.45 57.5867C197.393 57.7842 197.381 57.9918 197.414 58.1945C197.447 58.3973 197.524 58.5904 197.64 58.76L208.47 75.01C208.613 75.2238 208.695 75.4724 208.708 75.7294C208.721 75.9863 208.664 76.2419 208.543 76.4688C208.421 76.6958 208.241 76.8855 208.02 77.0178C207.8 77.1501 207.547 77.22 207.29 77.22H198.8C198.561 77.2201 198.325 77.1596 198.115 77.0442C197.905 76.9288 197.728 76.7623 197.6 76.56L186.52 59.24C186.39 59.0402 186.212 58.8761 186.003 58.7626C185.793 58.6491 185.558 58.5898 185.32 58.59H182.9C182.713 58.5887 182.528 58.6245 182.355 58.6954C182.182 58.7663 182.025 58.8708 181.893 59.0029C181.761 59.1351 181.656 59.2921 181.585 59.465C181.515 59.6379 181.479 59.8232 181.48 60.01V75.8C181.477 76.1775 181.326 76.5387 181.058 76.8047C180.79 77.0707 180.428 77.22 180.05 77.22H172.54C172.163 77.22 171.802 77.0704 171.536 76.8041C171.27 76.5378 171.12 76.1766 171.12 75.8ZM181.48 49.42C181.48 49.7966 181.63 50.1578 181.896 50.4241C182.162 50.6904 182.523 50.84 182.9 50.84H186.69C189.73 50.84 192.02 50.3833 193.56 49.47C194.324 49.0076 194.945 48.342 195.353 47.5474C195.761 46.7528 195.94 45.8605 195.87 44.97C195.937 44.0734 195.749 43.1761 195.328 42.3817C194.907 41.5873 194.27 40.928 193.49 40.48C191.91 39.5667 189.243 39.11 185.49 39.11H182.9C182.523 39.11 182.162 39.2596 181.896 39.5259C181.63 39.7922 181.48 40.1534 181.48 40.53V49.42Z" fill="#09CC7F"/>
<path d="M226.81 77.93C224.182 78.0121 221.592 77.2861 219.39 75.85C218.169 75.0324 217.179 73.9133 216.517 72.6012C215.855 71.289 215.542 69.8282 215.61 68.36C215.535 66.8403 215.856 65.3271 216.542 63.9687C217.227 62.6102 218.253 61.4529 219.52 60.61C221.733 59.09 224.733 58.33 228.52 58.33C230.379 58.3183 232.234 58.5129 234.05 58.91V57.68C234.1 57.0598 234.016 56.4361 233.804 55.8512C233.592 55.2663 233.256 54.7339 232.82 54.29C231.82 53.3767 230.17 52.92 227.87 52.92C225.311 52.9374 222.782 53.4785 220.44 54.51C220.226 54.6014 219.993 54.638 219.761 54.6167C219.53 54.5953 219.307 54.5165 219.113 54.3875C218.92 54.2584 218.761 54.0832 218.653 53.8776C218.544 53.6721 218.488 53.4426 218.49 53.21V47.84C218.488 47.5675 218.563 47.3 218.709 47.0695C218.854 46.839 219.063 46.6552 219.31 46.54C222.582 45.112 226.121 44.3994 229.69 44.45C234.357 44.45 237.917 45.4733 240.37 47.52C242.823 49.5667 244.02 52.5167 243.96 56.37V67.24C243.96 68.94 244.61 69.78 245.96 69.78C246.526 69.7793 247.085 69.6457 247.59 69.39V75.88C247.587 76.1841 247.489 76.4795 247.309 76.7251C247.13 76.9707 246.879 77.1542 246.59 77.25C245.372 77.6358 244.098 77.8182 242.82 77.79C241.553 77.8677 240.283 77.6812 239.092 77.2422C237.901 76.8032 236.814 76.1214 235.9 75.24H235.77C233.152 77.0799 230.009 78.0235 226.81 77.93ZM229.55 70.64C230.852 70.6355 232.135 70.3309 233.3 69.75C233.527 69.6285 233.717 69.4465 233.847 69.2242C233.978 69.0019 234.045 68.7478 234.04 68.49V65.78C234.045 65.4441 233.93 65.1176 233.715 64.8591C233.501 64.6006 233.201 64.4271 232.87 64.37C232.096 64.2442 231.314 64.184 230.53 64.19C227.143 64.19 225.45 65.2767 225.45 67.45C225.433 67.907 225.531 68.3609 225.735 68.7699C225.94 69.1789 226.244 69.5298 226.62 69.79C227.479 70.3818 228.507 70.6799 229.55 70.64Z" fill="#09CC7F"/>
<path d="M257.23 75.8V28.87C257.233 28.4942 257.383 28.1345 257.649 27.8688C257.915 27.6031 258.274 27.4526 258.65 27.45H265.71C266.087 27.45 266.448 27.5996 266.714 27.8659C266.98 28.1322 267.13 28.4934 267.13 28.87V75.8C267.13 76.1766 266.98 76.5378 266.714 76.8041C266.448 77.0704 266.087 77.22 265.71 77.22H258.65C258.274 77.2174 257.915 77.0669 257.649 76.8012C257.383 76.5355 257.233 76.1758 257.23 75.8Z" fill="#09CC7F"/>
<path d="M280.81 39.01C280.277 38.4893 279.853 37.8672 279.563 37.1802C279.274 36.4933 279.125 35.7554 279.125 35.01C279.125 34.2646 279.274 33.5267 279.563 32.8398C279.853 32.1528 280.277 31.5307 280.81 31.01C281.886 29.9474 283.338 29.3516 284.85 29.3516C286.362 29.3516 287.814 29.9474 288.89 31.01C289.423 31.5307 289.847 32.1528 290.137 32.8398C290.426 33.5267 290.575 34.2646 290.575 35.01C290.575 35.7554 290.426 36.4933 290.137 37.1802C289.847 37.8672 289.423 38.4893 288.89 39.01C287.818 40.0799 286.365 40.6807 284.85 40.6807C283.335 40.6807 281.882 40.0799 280.81 39.01ZM279.9 75.8V46.59C279.903 46.2142 280.053 45.8545 280.319 45.5888C280.585 45.3231 280.944 45.1726 281.32 45.17H288.38C288.757 45.17 289.118 45.3196 289.384 45.5859C289.65 45.8522 289.8 46.2134 289.8 46.59V75.8C289.8 76.1766 289.65 76.5378 289.384 76.8041C289.118 77.0704 288.757 77.22 288.38 77.22H281.32C280.944 77.2174 280.585 77.0669 280.319 76.8012C280.053 76.5355 279.903 76.1758 279.9 75.8Z" fill="#09CC7F"/>
<path d="M307.78 74.74C305.91 72.74 304.98 69.55 304.98 65.17V54.8C304.98 54.4234 304.83 54.0622 304.564 53.7959C304.298 53.5296 303.937 53.38 303.56 53.38H301.19C300.814 53.3774 300.455 53.2269 300.189 52.9612C299.923 52.6955 299.773 52.3358 299.77 51.96V46.59C299.773 46.2142 299.923 45.8545 300.189 45.5888C300.455 45.3231 300.814 45.1726 301.19 45.17H303.56C303.936 45.1674 304.295 45.0169 304.561 44.7512C304.827 44.4855 304.977 44.1258 304.98 43.75V38.03C304.982 37.6955 305.101 37.3722 305.317 37.1164C305.532 36.8606 305.831 36.6885 306.16 36.63L313.22 35.42C313.424 35.385 313.633 35.395 313.832 35.4493C314.032 35.5035 314.217 35.6007 314.375 35.7341C314.534 35.8674 314.661 36.0337 314.748 36.2213C314.835 36.4088 314.88 36.6132 314.88 36.82V43.75C314.883 44.1258 315.033 44.4855 315.299 44.7512C315.565 45.0169 315.924 45.1674 316.3 45.17H321.9C322.276 45.1726 322.635 45.3231 322.901 45.5888C323.167 45.8545 323.317 46.2142 323.32 46.59V51.96C323.317 52.3358 323.167 52.6955 322.901 52.9612C322.635 53.2269 322.276 53.3774 321.9 53.38H316.3C315.923 53.38 315.562 53.5296 315.296 53.7959C315.03 54.0622 314.88 54.4234 314.88 54.8V64.13C314.88 67.77 316.12 69.6 318.59 69.6C319.56 69.5845 320.522 69.4158 321.44 69.1C321.654 69.0215 321.883 68.9954 322.109 69.024C322.335 69.0527 322.55 69.1352 322.737 69.2646C322.925 69.394 323.078 69.5665 323.185 69.7676C323.291 69.9687 323.348 70.1924 323.35 70.42V74.24C323.408 74.791 323.296 75.3467 323.027 75.8315C322.759 76.3163 322.348 76.7068 321.85 76.95C320.023 77.651 318.077 77.9907 316.12 77.95C312.56 77.9367 309.78 76.8667 307.78 74.74Z" fill="#09CC7F"/>
<path d="M195.99 126.77C195.859 126.956 195.685 127.107 195.483 127.212C195.281 127.316 195.057 127.371 194.83 127.371C194.603 127.371 194.379 127.316 194.177 127.212C193.975 127.107 193.801 126.956 193.67 126.77L187.99 118.71C185.903 115.757 183.6 112.39 181.08 108.61L180.95 108.68C181.04 113.2 181.08 117.1 181.08 120.4V136.74C181.08 137.416 180.811 138.065 180.333 138.543C179.855 139.021 179.206 139.29 178.53 139.29H173.67C172.994 139.29 172.345 139.021 171.867 138.543C171.389 138.065 171.12 137.416 171.12 136.74V93.55C171.12 93.1734 171.27 92.8122 171.536 92.5459C171.802 92.2796 172.163 92.13 172.54 92.13H180.35C180.578 92.1318 180.802 92.1882 181.004 92.2943C181.206 92.4004 181.379 92.5532 181.51 92.74L193.9 110.41C194.03 110.598 194.203 110.751 194.405 110.857C194.607 110.963 194.832 111.018 195.06 111.018C195.288 111.018 195.513 110.963 195.715 110.857C195.917 110.751 196.09 110.598 196.22 110.41L208.64 92.74C208.771 92.5532 208.944 92.4004 209.146 92.2943C209.348 92.1882 209.572 92.1318 209.8 92.13H217.48C217.856 92.1326 218.215 92.2831 218.481 92.5488C218.747 92.8145 218.897 93.1742 218.9 93.55V136.74C218.9 137.416 218.631 138.065 218.153 138.543C217.675 139.021 217.026 139.29 216.35 139.29H211.1C210.423 139.29 209.773 139.022 209.293 138.544C208.813 138.066 208.543 137.417 208.54 136.74V120.4C208.54 117.1 208.59 113.2 208.67 108.68L208.54 108.61C206.02 112.39 203.72 115.757 201.64 118.71L195.99 126.77Z" fill="#09CC7F"/>
<path d="M232.81 101.09C232.274 100.571 231.848 99.949 231.557 99.2619C231.266 98.5748 231.116 97.8362 231.116 97.09C231.116 96.3438 231.266 95.6052 231.557 94.9181C231.848 94.2309 232.274 93.6093 232.81 93.09C233.331 92.5584 233.953 92.1374 234.641 91.8521C235.328 91.5669 236.066 91.4233 236.81 91.43C237.89 91.4383 238.948 91.7381 239.872 92.2978C240.796 92.8576 241.552 93.6564 242.06 94.61C242.154 94.7582 242.225 94.9202 242.27 95.09C242.624 96.1222 242.678 97.2334 242.427 98.2951C242.176 99.3569 241.629 100.326 240.85 101.09C239.777 102.154 238.326 102.752 236.815 102.752C235.303 102.752 233.853 102.154 232.78 101.09H232.81ZM231.9 136.74V108.67C231.9 108.293 232.05 107.932 232.316 107.666C232.582 107.4 232.943 107.25 233.32 107.25H240.38C240.567 107.249 240.752 107.284 240.925 107.355C241.098 107.426 241.255 107.531 241.387 107.663C241.519 107.795 241.624 107.952 241.695 108.125C241.766 108.298 241.801 108.483 241.8 108.67V136.74C241.8 137.416 241.531 138.065 241.053 138.543C240.575 139.021 239.926 139.29 239.25 139.29H234.46C233.783 139.29 233.133 139.022 232.653 138.544C232.174 138.066 231.903 137.417 231.9 136.74Z" fill="#09CC7F"/>
<path d="M254.56 136.74V90.95C254.56 90.5734 254.71 90.2122 254.976 89.9459C255.242 89.6796 255.603 89.53 255.98 89.53H263.04C263.227 89.5287 263.412 89.5645 263.585 89.6354C263.758 89.7063 263.915 89.8108 264.047 89.9429C264.179 90.0751 264.284 90.2321 264.355 90.405C264.425 90.5779 264.461 90.7632 264.46 90.95V136.74C264.46 137.416 264.191 138.065 263.713 138.543C263.235 139.021 262.586 139.29 261.91 139.29H257.12C256.443 139.29 255.793 139.022 255.313 138.544C254.834 138.066 254.563 137.417 254.56 136.74Z" fill="#09CC7F"/>
<path d="M278.14 101.09C277.607 100.569 277.183 99.9472 276.893 99.2602C276.604 98.5733 276.455 97.8354 276.455 97.09C276.455 96.3446 276.604 95.6067 276.893 94.9198C277.183 94.2328 277.607 93.6107 278.14 93.09C279.216 92.0274 280.668 91.4316 282.18 91.4316C283.692 91.4316 285.144 92.0274 286.22 93.09C286.753 93.6107 287.177 94.2328 287.467 94.9198C287.756 95.6067 287.905 96.3446 287.905 97.09C287.905 97.8354 287.756 98.5733 287.467 99.2602C287.177 99.9472 286.753 100.569 286.22 101.09C285.144 102.153 283.692 102.748 282.18 102.748C280.668 102.748 279.216 102.153 278.14 101.09ZM277.23 136.74V108.67C277.23 108.293 277.38 107.932 277.646 107.666C277.912 107.4 278.273 107.25 278.65 107.25H285.71C285.897 107.249 286.082 107.284 286.255 107.355C286.428 107.426 286.585 107.531 286.717 107.663C286.849 107.795 286.954 107.952 287.025 108.125C287.096 108.298 287.131 108.483 287.13 108.67V136.74C287.13 137.416 286.861 138.065 286.383 138.543C285.905 139.021 285.256 139.29 284.58 139.29H279.78C279.104 139.29 278.455 139.021 277.977 138.543C277.499 138.065 277.23 137.416 277.23 136.74Z" fill="#09CC7F"/>
<path d="M305.11 136.82C303.237 134.82 302.303 131.627 302.31 127.24V116.87C302.307 116.494 302.157 116.135 301.891 115.869C301.625 115.603 301.266 115.453 300.89 115.45H298.52C298.333 115.451 298.148 115.415 297.975 115.345C297.802 115.274 297.645 115.169 297.513 115.037C297.381 114.905 297.276 114.748 297.205 114.575C297.134 114.402 297.099 114.217 297.1 114.03V108.67C297.099 108.483 297.134 108.298 297.205 108.125C297.276 107.952 297.381 107.795 297.513 107.663C297.645 107.531 297.802 107.426 297.975 107.355C298.148 107.284 298.333 107.249 298.52 107.25H300.9C301.276 107.247 301.635 107.097 301.901 106.831C302.167 106.565 302.317 106.206 302.32 105.83V100.11C302.318 99.7744 302.436 99.449 302.652 99.1924C302.868 98.9358 303.169 98.7647 303.5 98.71L310.56 97.5C310.764 97.465 310.973 97.475 311.172 97.5293C311.372 97.5835 311.557 97.6807 311.715 97.8141C311.874 97.9474 312.001 98.1137 312.088 98.3012C312.175 98.4888 312.22 98.6932 312.22 98.9V105.83C312.223 106.206 312.373 106.565 312.639 106.831C312.905 107.097 313.264 107.247 313.64 107.25H319.27C319.456 107.25 319.641 107.287 319.813 107.358C319.986 107.429 320.142 107.534 320.274 107.666C320.406 107.798 320.51 107.954 320.582 108.127C320.653 108.299 320.69 108.484 320.69 108.67V114.03C320.69 114.407 320.54 114.768 320.274 115.034C320.008 115.3 319.647 115.45 319.27 115.45H313.64C313.264 115.453 312.905 115.603 312.639 115.869C312.373 116.135 312.223 116.494 312.22 116.87V126.24C312.22 129.893 313.457 131.717 315.93 131.71C316.901 131.7 317.864 131.531 318.78 131.21C318.994 131.134 319.224 131.109 319.45 131.14C319.675 131.17 319.89 131.253 320.077 131.383C320.264 131.514 320.417 131.686 320.524 131.888C320.63 132.089 320.687 132.312 320.69 132.54V136.75C320.698 137.243 320.559 137.727 320.292 138.142C320.025 138.556 319.642 138.883 319.19 139.08C317.364 139.786 315.417 140.126 313.46 140.08C309.893 140.033 307.11 138.947 305.11 136.82Z" fill="#09CC7F"/>
<path d="M54.04 75.05C53.73 75.33 53.46 75.56 53.21 75.8C51.8305 77.3391 50.611 79.0144 49.57 80.8C48.79 81.95 47.96 83.07 47.15 84.2C46.34 85.33 45.44 86.55 44.62 87.76C44.508 87.9008 44.4269 88.0637 44.3821 88.238C44.3373 88.4123 44.3298 88.5941 44.36 88.7715C44.3902 88.9489 44.4574 89.1179 44.5574 89.2676C44.6573 89.4172 44.7877 89.5441 44.94 89.64C45.4578 90.0735 46.0096 90.4647 46.59 90.81C47.3283 91.265 48.093 91.6757 48.88 92.04C50.6786 92.8742 52.6654 93.2191 54.64 93.04C56.8031 92.8227 58.8614 92.0014 60.58 90.67C61.98 89.67 63.31 88.51 64.64 87.39C65.077 87.0186 65.4637 86.5916 65.79 86.12C66.1404 85.622 66.6301 85.2386 67.1976 85.018C67.7652 84.7974 68.3852 84.7494 68.98 84.88C69.4426 84.9864 69.9153 85.0434 70.39 85.05C72.2 85.05 74.01 85.05 75.82 85C76.57 85 77.31 85 78.06 85.08C78.2137 85.1071 78.3581 85.1724 78.48 85.27C79.26 85.83 80.03 86.41 80.81 86.96C81.59 87.51 82.15 87.84 82.81 88.28L86.73 90.94C88.03 91.82 89.36 92.67 90.66 93.56C91.66 94.26 92.66 95.01 93.66 95.71C94.28 96.13 94.95 96.48 95.59 96.89C96.23 97.3 96.96 97.84 97.65 98.3L99.94 99.82C100.53 100.21 101.1 100.63 101.68 101.02C102.26 101.41 102.79 101.72 103.34 102.09C103.89 102.46 104.34 102.85 104.91 103.21C105.91 103.9 106.96 104.55 107.96 105.26C108.566 105.65 109.088 106.156 109.495 106.751C109.902 107.345 110.186 108.014 110.33 108.72C110.52 109.766 110.36 110.846 109.876 111.793C109.391 112.74 108.609 113.501 107.65 113.96C106.613 114.435 105.442 114.534 104.34 114.24C103.652 114.016 103.006 113.678 102.43 113.24C101.21 112.45 100.02 111.6 98.81 110.8C96.25 109.11 93.67 107.45 91.12 105.8C88.83 104.29 86.56 102.75 84.28 101.23C83.9065 100.965 83.508 100.737 83.09 100.55C82.9292 100.481 82.7563 100.444 82.5811 100.441C82.406 100.439 82.2322 100.471 82.0696 100.537C81.907 100.602 81.7588 100.698 81.6336 100.82C81.5084 100.943 81.4086 101.089 81.34 101.25C81.2175 101.557 81.2012 101.896 81.2936 102.213C81.386 102.53 81.5819 102.807 81.85 103C83.1 103.82 84.34 104.66 85.58 105.49L90.2 108.49C91.2 109.14 92.12 109.81 93.09 110.49C94.06 111.17 95.28 111.97 96.39 112.69C97.5 113.41 98.79 114.19 99.98 114.96C100.878 115.519 101.654 116.253 102.26 117.12C102.756 117.904 102.997 118.823 102.95 119.75C102.952 120.403 102.818 121.05 102.554 121.648C102.29 122.245 101.904 122.781 101.42 123.22C100.809 123.838 100.033 124.265 99.1852 124.452C98.3371 124.638 97.4531 124.575 96.64 124.27C95.7314 123.867 94.8668 123.371 94.06 122.79C92.8 122 91.56 121.18 90.33 120.35C89.1 119.52 87.85 118.64 86.6 117.81C85.35 116.98 84.13 116.21 82.91 115.4C81.69 114.59 80.58 113.8 79.42 113.01C79.0116 112.658 78.549 112.374 78.05 112.17C77.7161 112.025 77.3393 112.015 76.9983 112.142C76.6572 112.269 76.3784 112.522 76.22 112.85C76.0959 113.16 76.0828 113.504 76.1831 113.823C76.2833 114.142 76.4906 114.416 76.77 114.6C77.63 115.21 78.56 115.74 79.44 116.33C80.32 116.92 81.19 117.56 82.09 118.15C83.39 119.02 84.72 119.84 86.02 120.71C87.02 121.36 87.94 122.04 88.89 122.71C89.5971 123.161 90.266 123.669 90.89 124.23C91.6045 124.874 92.1017 125.724 92.3131 126.662C92.5244 127.601 92.4395 128.582 92.07 129.47C91.8521 130.084 91.5004 130.642 91.0403 131.104C90.5803 131.566 90.0235 131.92 89.41 132.14C88.5398 132.493 87.5877 132.594 86.6628 132.432C85.7378 132.269 84.8774 131.849 84.18 131.22C83.07 130.34 81.81 129.66 80.62 128.87C79.62 128.2 78.62 127.5 77.62 126.82C76.44 126.03 75.24 125.27 74.05 124.48C73.28 123.98 72.51 123.48 71.77 122.95C71.4855 122.716 71.1252 122.593 70.7567 122.606C70.3883 122.619 70.0374 122.766 69.77 123.02C69.5342 123.336 69.4223 123.727 69.4555 124.119C69.4887 124.512 69.6646 124.878 69.95 125.15C70.6 125.54 71.23 125.96 71.86 126.37C72.65 126.89 73.42 127.37 74.2 127.94C74.78 128.33 75.37 128.7 75.94 129.09C76.94 129.75 77.86 130.41 78.83 131.09C79.38 131.46 79.94 131.79 80.49 132.16C81.0407 132.463 81.5024 132.905 81.8288 133.442C82.1552 133.979 82.3349 134.592 82.35 135.22C82.3312 135.796 82.087 136.342 81.67 136.74C81.0641 137.443 80.2801 137.97 79.4004 138.266C78.5206 138.561 77.5775 138.615 76.67 138.42C75.3125 138.157 74.0209 137.627 72.87 136.86C71.12 135.72 69.41 134.53 67.69 133.35C67.51 133.23 67.36 133.07 67.19 132.93C68.1387 131.608 68.5822 129.991 68.44 128.37C68.3492 127.227 67.9328 126.134 67.24 125.22C66.5216 124.235 65.5459 123.467 64.42 123C63.7694 122.8 63.0986 122.672 62.42 122.62C62.1 122.62 61.95 122.57 62.09 122.18C62.4297 121.268 62.5611 120.292 62.4746 119.323C62.3881 118.354 62.0858 117.417 61.59 116.58C60.9321 115.397 59.9504 114.425 58.76 113.78C57.7762 113.255 56.6748 112.99 55.56 113.01C54.91 113.01 54.93 113.01 55.01 112.37C55.1664 111.365 55.0919 110.337 54.7921 109.365C54.4924 108.393 53.9753 107.502 53.28 106.76C52.4924 105.877 51.4912 105.211 50.3723 104.826C49.2534 104.44 48.0543 104.349 46.89 104.56C45.868 104.715 44.9035 105.132 44.09 105.77C43.77 106 43.66 105.93 43.58 105.58C43.2434 104.434 42.5837 103.41 41.68 102.63C40.586 101.584 39.1826 100.921 37.68 100.74C36.6986 100.644 35.7081 100.767 34.78 101.1C32.94 101.6 31.78 102.95 30.71 104.38L29.36 106.16C29.16 106.43 28.95 106.5 28.7 106.23C27.76 105.23 26.8 104.23 25.88 103.23C25.3541 102.64 24.86 102.023 24.4 101.38C23.92 100.72 23.49 100.02 23.03 99.38C22.7552 98.998 22.5079 98.597 22.29 98.18C22.2412 98.0715 22.2159 97.9539 22.2159 97.835C22.2159 97.716 22.2412 97.5985 22.29 97.49C23.18 96.11 24.11 94.75 25.02 93.38C25.72 92.31 26.4 91.23 27.11 90.16C27.82 89.09 28.71 87.78 29.51 86.58C30.31 85.38 31.1 84.11 31.91 82.88C33.02 81.22 34.14 79.58 35.24 77.88C36.48 76.02 37.7 74.15 38.93 72.29C39.23 71.84 39.53 71.39 39.86 70.97C39.9159 70.9229 39.9829 70.8909 40.0546 70.8769C40.1264 70.8629 40.2005 70.8674 40.27 70.89C41.51 71.49 42.71 72.17 43.96 72.71C44.9095 73.1183 45.889 73.4526 46.89 73.71C48.35 74.09 49.83 74.41 51.31 74.71C51.67 74.79 52.04 74.77 52.4 74.83C52.9 74.82 53.43 74.94 54.04 75.05Z" fill="white"/>
<path d="M103.33 73.24C103.71 73.8 104.12 74.38 104.51 74.98C105.33 76.21 106.15 77.46 106.96 78.7C107.77 79.94 108.7 81.41 109.58 82.75C110.46 84.09 111.39 85.42 112.28 86.75C113.34 88.34 114.38 89.95 115.43 91.54C116.21 92.72 117.02 93.88 117.81 95.05C118.6 96.22 119.34 97.33 120.1 98.48C120.137 98.5266 120.164 98.5806 120.178 98.6383C120.193 98.696 120.195 98.7562 120.185 98.8148C120.174 98.8734 120.152 98.9292 120.118 98.9784C120.084 99.0275 120.041 99.069 119.99 99.1C119.17 99.76 118.39 100.45 117.55 101.1C116.584 101.817 115.583 102.485 114.55 103.1C113.65 103.64 112.67 104.1 111.73 104.55L111.3 104.76C111.136 104.87 110.943 104.928 110.745 104.928C110.547 104.928 110.354 104.87 110.19 104.76C108.7 103.7 107.19 102.66 105.67 101.62C103.94 100.43 102.21 99.24 100.47 98.07C99 97.07 97.47 96.14 96.04 95.16C95.04 94.51 94.12 93.82 93.15 93.16C91.84 92.28 90.51 91.41 89.2 90.52C88.28 89.89 87.38 89.23 86.45 88.59C85.73 88.1 84.99 87.65 84.27 87.16C82.96 86.27 81.62 85.42 80.36 84.46C79.5749 83.8622 78.6168 83.5358 77.63 83.53C75.36 83.53 73.09 83.53 70.82 83.53C69.96 83.53 69.11 83.38 68.26 83.33C67.6438 83.276 67.0231 83.3494 66.4365 83.5455C65.8498 83.7416 65.3098 84.0563 64.85 84.47C64.12 85.11 63.51 85.88 62.79 86.47C61.66 87.47 60.48 88.39 59.34 89.37C58.2274 90.2729 56.9506 90.952 55.58 91.37C54.9167 91.5734 54.2227 91.6581 53.53 91.62C51.5825 91.4843 49.7024 90.8507 48.07 89.78C47.73 89.57 47.71 89.39 47.93 89.1C48.6 88.21 49.27 87.33 49.93 86.43C50.59 85.53 51.34 84.37 52.06 83.34C53.06 81.96 53.94 80.52 55.01 79.22C55.7931 78.3156 56.795 77.627 57.92 77.22C59.36 76.65 60.86 76.31 62.34 75.87C63.64 75.5 64.92 75.04 66.21 74.62C67.5 74.2 68.7 73.83 69.94 73.42C70.94 73.1 71.84 72.73 72.8 72.42C73.6555 72.1665 74.5233 71.9562 75.4 71.79C76.54 71.57 77.68 71.39 78.82 71.24C79.1789 71.2004 79.5411 71.2004 79.9 71.24C81.8364 71.4628 83.7337 71.9473 85.54 72.68C85.9556 72.8257 86.3797 72.9459 86.81 73.04C88.6603 73.5373 90.557 73.8422 92.47 73.95C94.1 73.95 95.73 74.15 97.36 74.09C98.8313 74.003 100.297 73.8361 101.75 73.59C102.284 73.5082 102.812 73.3913 103.33 73.24Z" fill="white"/>
<path d="M40.24 65.12L40.05 65.42C39.05 66.92 38.05 68.42 37.05 69.92C36.05 71.42 35.05 73.03 34.05 74.58C32.92 76.3 31.77 78 30.63 79.72L26.63 85.82C25.63 87.26 24.73 88.69 23.78 90.14C22.23 92.48 20.69 94.84 19.14 97.14C18.69 97.81 18.22 98.45 17.79 99.14C17.57 99.47 17.38 99.46 17.1 99.23C15.9 98.25 14.6933 97.2767 13.48 96.31C12.76 95.73 12.04 95.17 11.32 94.61C11.06 94.4 10.98 94.3 11.25 93.95C11.9 93.12 12.44 92.2 13.04 91.33C13.39 90.81 13.78 90.33 14.14 89.79C14.74 88.92 15.32 88.04 15.92 87.17C16.74 85.99 17.58 84.82 18.4 83.64C18.84 83 19.24 82.35 19.68 81.71C20.75 80.14 21.83 78.58 22.9 77.02C24.6933 74.3933 26.49 71.77 28.29 69.15C28.95 68.15 29.65 67.24 30.29 66.27C31.13 65.04 31.95 63.8 32.77 62.57C33.24 61.87 33.7 61.17 34.17 60.48C34.32 60.26 34.48 60.17 34.74 60.4C35.87 61.4 37.01 62.28 38.14 63.21L39.99 64.77C40.0844 64.8783 40.1681 64.9956 40.24 65.12Z" fill="white"/>
<path d="M109.43 64.24L109.65 64.52C110.7 65.99 111.74 67.46 112.81 68.91C113.88 70.36 115.03 71.91 116.12 73.38C117.34 75.04 118.53 76.71 119.74 78.38L124.05 84.29L127.1 88.47L132.1 95.28C132.58 95.93 133.02 96.6 133.5 97.28C133.74 97.6 133.66 97.78 133.35 97.96C132.01 98.74 130.67 99.54 129.35 100.33C128.56 100.8 127.78 101.28 127 101.76C126.72 101.93 126.59 101.97 126.36 101.6C125.82 100.69 125.14 99.87 124.53 99C124.17 98.49 123.83 97.95 123.47 97.44C122.87 96.57 122.25 95.72 121.64 94.85C120.82 93.67 120.02 92.47 119.2 91.29C118.76 90.66 118.28 90.05 117.84 89.42L114.56 84.77L109.07 76.97C108.4 75.97 107.76 75.02 107.07 74.07C106.21 72.85 105.33 71.65 104.46 70.45C103.97 69.77 103.46 69.1 103 68.45C102.84 68.23 102.81 68.05 103.12 67.88C104.4 67.17 105.67 66.42 106.94 65.68L109.04 64.49C109.165 64.3986 109.295 64.3151 109.43 64.24Z" fill="white"/>
<path d="M38.15 128.24C37.4657 128.222 36.7953 128.043 36.1939 127.716C35.5925 127.389 35.0771 126.925 34.69 126.36C34.2244 125.663 33.986 124.839 34.0075 124.001C34.029 123.163 34.3093 122.352 34.81 121.68C36.14 119.95 37.5 118.25 38.81 116.52C39.56 115.52 40.28 114.52 41.03 113.52C41.78 112.52 42.51 111.63 43.26 110.68C43.76 110.03 44.26 109.38 44.78 108.74C45.1793 108.212 45.7012 107.79 46.3007 107.509C46.9001 107.229 47.5589 107.098 48.22 107.13C48.9838 107.134 49.7307 107.356 50.3722 107.771C51.0137 108.185 51.523 108.775 51.84 109.47C52.1286 109.956 52.2891 110.507 52.3066 111.072C52.3241 111.637 52.198 112.197 51.94 112.7C51.5019 113.499 51.0108 114.267 50.47 115C49.54 116.25 48.56 117.45 47.61 118.67L44.9 122.24C43.83 123.61 42.72 124.96 41.68 126.36C41.0381 127.213 40.1471 127.846 39.13 128.17C38.8076 128.235 38.4783 128.258 38.15 128.24Z" fill="white"/>
<path d="M43.54 129.86C43.5419 129.352 43.6445 128.849 43.8419 128.38C44.0393 127.911 44.3275 127.487 44.69 127.13C45.42 126.22 46.12 125.28 46.84 124.35L49.34 121.12C50.12 120.12 50.89 119.12 51.65 118.12C52.2837 117.071 53.2687 116.281 54.43 115.89C55.2625 115.684 56.1365 115.718 56.95 115.99C57.5629 116.215 58.1142 116.581 58.5589 117.059C59.0037 117.537 59.3295 118.113 59.5097 118.74C59.69 119.368 59.7196 120.029 59.5963 120.67C59.473 121.311 59.2002 121.914 58.8 122.43C57.43 124.2 56.09 126.01 54.73 127.79C53.37 129.57 52.27 131.05 50.98 132.64C50.5648 133.218 50.0031 133.674 49.3527 133.962C48.7023 134.251 47.9868 134.36 47.28 134.28C46.2026 134.178 45.2079 133.659 44.5088 132.833C43.8098 132.006 43.462 130.939 43.54 129.86Z" fill="white"/>
<path d="M27.09 114.99C27.0922 113.836 27.5484 112.73 28.36 111.91C29.96 109.91 31.53 107.83 33.11 105.79C33.6035 105.038 34.2554 104.403 35.02 103.93C35.9205 103.447 36.968 103.315 37.96 103.56C38.9285 103.77 39.778 104.347 40.33 105.17C40.8222 105.867 41.0914 106.697 41.1021 107.551C41.1128 108.404 40.8645 109.241 40.39 109.95C39.1567 111.543 37.92 113.13 36.68 114.71C35.76 115.88 34.89 117.08 33.9 118.18C33.4636 118.557 32.9418 118.821 32.38 118.95C31.9719 119.058 31.5521 119.115 31.13 119.12C30.3496 119.104 29.5894 118.869 28.9367 118.441C28.284 118.013 27.7652 117.41 27.44 116.7C27.38 116.47 27.24 116.26 27.2 116.03C27.16 115.8 27.12 115.34 27.09 114.99Z" fill="white"/>
<path d="M65.69 128.87C65.6863 129.857 65.3319 130.81 64.69 131.56C63.91 132.61 63.13 133.67 62.31 134.7C61.6761 135.601 60.9487 136.432 60.14 137.18C59.4528 137.747 58.5769 138.035 57.6871 137.985C56.7974 137.935 55.9592 137.551 55.34 136.91C54.8714 136.457 54.5318 135.888 54.356 135.261C54.1803 134.633 54.1748 133.97 54.34 133.34C54.4445 132.906 54.6424 132.5 54.92 132.15C55.68 131.1 56.49 130.08 57.28 129.05L59.23 126.53C59.7132 125.955 60.3613 125.542 61.0867 125.347C61.8121 125.151 62.58 125.184 63.2866 125.439C63.9931 125.694 64.6044 126.16 65.0378 126.773C65.4711 127.387 65.7058 128.119 65.71 128.87H65.69Z" fill="white"/>
<path d="M71.45 33.75H67.9V58.52H71.45V33.75Z" fill="white"/>
<path d="M44.4235 38.3688L41.6662 40.6048L57.2679 59.8438L60.0252 57.6078L44.4235 38.3688Z" fill="white"/>
<path d="M93.9505 38.4045L78.3488 57.6435L81.1061 59.8795L96.7078 40.6405L93.9505 38.4045Z" fill="white"/>
<path d="M172.745 158.82H171.465L175.169 148.733H176.429L180.133 158.82H178.853L175.838 150.329H175.76L172.745 158.82ZM173.218 154.88H178.38V155.963H173.218V154.88ZM184.363 151.255V152.24H180.442V151.255H184.363ZM181.585 149.442H182.748V156.653C182.748 156.981 182.795 157.227 182.89 157.392C182.989 157.553 183.114 157.661 183.265 157.717C183.419 157.769 183.582 157.796 183.752 157.796C183.88 157.796 183.985 157.789 184.068 157.776C184.15 157.759 184.215 157.746 184.265 157.736L184.501 158.781C184.422 158.81 184.312 158.84 184.171 158.869C184.03 158.902 183.851 158.919 183.634 158.919C183.306 158.919 182.984 158.848 182.669 158.707C182.357 158.566 182.097 158.35 181.891 158.061C181.687 157.773 181.585 157.408 181.585 156.968V149.442ZM189.402 151.255V152.24H185.481V151.255H189.402ZM186.624 149.442H187.786V156.653C187.786 156.981 187.834 157.227 187.929 157.392C188.028 157.553 188.152 157.661 188.303 157.717C188.458 157.769 188.62 157.796 188.791 157.796C188.919 157.796 189.024 157.789 189.106 157.776C189.188 157.759 189.254 157.746 189.303 157.736L189.54 158.781C189.461 158.81 189.351 158.84 189.21 158.869C189.069 158.902 188.89 158.919 188.673 158.919C188.344 158.919 188.023 158.848 187.707 158.707C187.395 158.566 187.136 158.35 186.929 158.061C186.726 157.773 186.624 157.408 186.624 156.968V149.442ZM193.377 158.997C192.897 158.997 192.462 158.907 192.071 158.726C191.681 158.543 191.37 158.278 191.14 157.933C190.911 157.585 190.796 157.165 190.796 156.673C190.796 156.239 190.881 155.888 191.052 155.618C191.223 155.346 191.451 155.133 191.736 154.978C192.022 154.824 192.337 154.709 192.682 154.633C193.03 154.555 193.38 154.492 193.731 154.446C194.191 154.387 194.564 154.343 194.849 154.313C195.138 154.28 195.348 154.226 195.48 154.151C195.614 154.075 195.682 153.944 195.682 153.757V153.717C195.682 153.231 195.549 152.854 195.283 152.584C195.02 152.315 194.621 152.181 194.086 152.181C193.531 152.181 193.096 152.302 192.781 152.545C192.465 152.788 192.244 153.047 192.116 153.323L191.012 152.929C191.209 152.469 191.472 152.112 191.8 151.855C192.132 151.596 192.493 151.415 192.884 151.314C193.278 151.209 193.666 151.156 194.046 151.156C194.289 151.156 194.569 151.186 194.884 151.245C195.202 151.301 195.509 151.417 195.805 151.594C196.104 151.772 196.352 152.039 196.549 152.397C196.746 152.755 196.844 153.235 196.844 153.835V158.82H195.682V157.796H195.623C195.544 157.96 195.412 158.135 195.229 158.323C195.045 158.51 194.8 158.669 194.495 158.8C194.189 158.932 193.817 158.997 193.377 158.997ZM193.554 157.953C194.014 157.953 194.401 157.863 194.716 157.682C195.035 157.502 195.275 157.268 195.435 156.983C195.6 156.697 195.682 156.397 195.682 156.081V155.018C195.632 155.077 195.524 155.131 195.357 155.18C195.192 155.226 195.002 155.267 194.785 155.303C194.572 155.336 194.363 155.366 194.16 155.392C193.959 155.415 193.797 155.435 193.672 155.451C193.37 155.49 193.088 155.554 192.825 155.643C192.566 155.728 192.355 155.858 192.195 156.032C192.037 156.203 191.958 156.436 191.958 156.732C191.958 157.136 192.107 157.441 192.406 157.648C192.708 157.851 193.091 157.953 193.554 157.953ZM202.039 158.978C201.33 158.978 200.719 158.81 200.207 158.475C199.695 158.14 199.301 157.679 199.025 157.091C198.749 156.503 198.611 155.832 198.611 155.077C198.611 154.308 198.752 153.63 199.035 153.042C199.32 152.451 199.718 151.99 200.227 151.658C200.739 151.324 201.337 151.156 202.019 151.156C202.551 151.156 203.031 151.255 203.458 151.452C203.885 151.649 204.234 151.924 204.507 152.279C204.779 152.634 204.948 153.047 205.014 153.52H203.852C203.763 153.175 203.566 152.87 203.261 152.604C202.959 152.335 202.551 152.2 202.039 152.2C201.586 152.2 201.189 152.318 200.847 152.555C200.509 152.788 200.245 153.118 200.054 153.545C199.867 153.968 199.774 154.466 199.774 155.037C199.774 155.622 199.865 156.131 200.049 156.564C200.236 156.998 200.499 157.334 200.837 157.574C201.179 157.814 201.579 157.933 202.039 157.933C202.341 157.933 202.615 157.881 202.862 157.776C203.108 157.671 203.317 157.52 203.487 157.323C203.658 157.126 203.78 156.889 203.852 156.613H205.014C204.948 157.06 204.786 157.462 204.527 157.82C204.27 158.175 203.931 158.457 203.507 158.667C203.087 158.874 202.597 158.978 202.039 158.978ZM207.797 156.062L207.777 154.624H208.014L211.324 151.255H212.762L209.235 154.821H209.137L207.797 156.062ZM206.713 158.82V148.733H207.876V158.82H206.713ZM211.521 158.82L208.565 155.077L209.393 154.269L212.998 158.82H211.521ZM221.449 151.255V152.24H217.528V151.255H221.449ZM218.671 149.442H219.834V156.653C219.834 156.981 219.881 157.227 219.976 157.392C220.075 157.553 220.2 157.661 220.351 157.717C220.505 157.769 220.668 157.796 220.838 157.796C220.966 157.796 221.071 157.789 221.154 157.776C221.236 157.759 221.301 157.746 221.351 157.736L221.587 158.781C221.508 158.81 221.398 158.84 221.257 158.869C221.116 158.902 220.937 158.919 220.72 158.919C220.392 158.919 220.07 158.848 219.755 158.707C219.443 158.566 219.183 158.35 218.977 158.061C218.773 157.773 218.671 157.408 218.671 156.968V149.442ZM224.523 154.269V158.82H223.36V148.733H224.523V152.437H224.621C224.798 152.046 225.064 151.736 225.419 151.506C225.777 151.273 226.253 151.156 226.847 151.156C227.363 151.156 227.814 151.259 228.202 151.466C228.589 151.67 228.89 151.984 229.103 152.407C229.32 152.827 229.428 153.363 229.428 154.013V158.82H228.266V154.092C228.266 153.491 228.11 153.026 227.798 152.698C227.489 152.366 227.061 152.2 226.512 152.2C226.132 152.2 225.79 152.281 225.488 152.442C225.189 152.602 224.953 152.837 224.779 153.146C224.608 153.455 224.523 153.829 224.523 154.269ZM234.727 158.978C233.998 158.978 233.369 158.817 232.84 158.495C232.315 158.17 231.909 157.717 231.624 157.136C231.341 156.551 231.2 155.871 231.2 155.096C231.2 154.321 231.341 153.638 231.624 153.047C231.909 152.453 232.307 151.99 232.816 151.658C233.328 151.324 233.926 151.156 234.609 151.156C235.003 151.156 235.392 151.222 235.776 151.353C236.16 151.484 236.51 151.698 236.825 151.993C237.14 152.286 237.391 152.673 237.579 153.156C237.766 153.638 237.859 154.233 237.859 154.939V155.431H232.028V154.427H236.677C236.677 154 236.592 153.619 236.421 153.284C236.254 152.949 236.014 152.685 235.702 152.491C235.393 152.297 235.029 152.2 234.609 152.2C234.146 152.2 233.745 152.315 233.407 152.545C233.072 152.772 232.814 153.067 232.633 153.432C232.453 153.796 232.363 154.187 232.363 154.604V155.274C232.363 155.845 232.461 156.329 232.658 156.727C232.858 157.121 233.136 157.421 233.491 157.628C233.845 157.832 234.257 157.933 234.727 157.933C235.032 157.933 235.308 157.891 235.554 157.805C235.804 157.717 236.019 157.585 236.199 157.411C236.38 157.234 236.52 157.014 236.618 156.751L237.741 157.067C237.623 157.447 237.424 157.782 237.145 158.071C236.866 158.357 236.521 158.58 236.111 158.741C235.7 158.899 235.239 158.978 234.727 158.978ZM243.529 161.657V151.255H244.652V152.456H244.789C244.875 152.325 244.993 152.158 245.144 151.954C245.298 151.747 245.518 151.563 245.804 151.402C246.093 151.238 246.484 151.156 246.976 151.156C247.613 151.156 248.175 151.315 248.661 151.634C249.147 151.952 249.526 152.404 249.799 152.988C250.071 153.573 250.207 154.262 250.207 155.057C250.207 155.858 250.071 156.553 249.799 157.14C249.526 157.725 249.148 158.178 248.666 158.5C248.183 158.818 247.626 158.978 246.996 158.978C246.51 158.978 246.121 158.897 245.829 158.736C245.536 158.572 245.312 158.387 245.154 158.18C244.996 157.97 244.875 157.796 244.789 157.658H244.691V161.657H243.529ZM244.671 155.037C244.671 155.609 244.755 156.113 244.922 156.549C245.09 156.983 245.335 157.323 245.656 157.569C245.978 157.812 246.372 157.933 246.838 157.933C247.324 157.933 247.73 157.805 248.055 157.549C248.383 157.29 248.63 156.942 248.794 156.505C248.961 156.065 249.045 155.576 249.045 155.037C249.045 154.505 248.963 154.026 248.799 153.599C248.638 153.169 248.393 152.829 248.065 152.579C247.74 152.327 247.331 152.2 246.838 152.2C246.366 152.2 245.968 152.32 245.646 152.56C245.325 152.796 245.082 153.128 244.917 153.555C244.753 153.978 244.671 154.472 244.671 155.037ZM251.981 158.82V151.255H253.104V152.397H253.182C253.32 152.023 253.57 151.719 253.931 151.486C254.292 151.253 254.699 151.136 255.153 151.136C255.238 151.136 255.345 151.138 255.473 151.141C255.601 151.145 255.698 151.149 255.763 151.156V152.338C255.724 152.328 255.634 152.314 255.492 152.294C255.354 152.271 255.208 152.259 255.054 152.259C254.686 152.259 254.358 152.337 254.069 152.491C253.783 152.642 253.557 152.852 253.389 153.121C253.225 153.387 253.143 153.691 253.143 154.032V158.82H251.981ZM259.984 158.978C259.301 158.978 258.702 158.815 258.187 158.49C257.674 158.165 257.274 157.71 256.985 157.126C256.699 156.541 256.556 155.858 256.556 155.077C256.556 154.289 256.699 153.601 256.985 153.013C257.274 152.425 257.674 151.969 258.187 151.644C258.702 151.319 259.301 151.156 259.984 151.156C260.667 151.156 261.265 151.319 261.777 151.644C262.293 151.969 262.693 152.425 262.979 153.013C263.268 153.601 263.412 154.289 263.412 155.077C263.412 155.858 263.268 156.541 262.979 157.126C262.693 157.71 262.293 158.165 261.777 158.49C261.265 158.815 260.667 158.978 259.984 158.978ZM259.984 157.933C260.503 157.933 260.93 157.8 261.265 157.534C261.6 157.268 261.848 156.919 262.009 156.485C262.17 156.052 262.25 155.582 262.25 155.077C262.25 154.571 262.17 154.1 262.009 153.663C261.848 153.226 261.6 152.873 261.265 152.604C260.93 152.335 260.503 152.2 259.984 152.2C259.466 152.2 259.039 152.335 258.704 152.604C258.369 152.873 258.121 153.226 257.96 153.663C257.799 154.1 257.719 154.571 257.719 155.077C257.719 155.582 257.799 156.052 257.96 156.485C258.121 156.919 258.369 157.268 258.704 157.534C259.039 157.8 259.466 157.933 259.984 157.933ZM265.344 158.82V148.733H266.507V152.456H266.605C266.691 152.325 266.809 152.158 266.96 151.954C267.114 151.747 267.334 151.563 267.62 151.402C267.909 151.238 268.3 151.156 268.792 151.156C269.429 151.156 269.991 151.315 270.477 151.634C270.963 151.952 271.342 152.404 271.615 152.988C271.887 153.573 272.023 154.262 272.023 155.057C272.023 155.858 271.887 156.553 271.615 157.14C271.342 157.725 270.964 158.178 270.482 158.5C269.999 158.818 269.442 158.978 268.812 158.978C268.326 158.978 267.937 158.897 267.645 158.736C267.352 158.572 267.127 158.387 266.97 158.18C266.812 157.97 266.691 157.796 266.605 157.658H266.467V158.82H265.344ZM266.487 155.037C266.487 155.609 266.571 156.113 266.738 156.549C266.906 156.983 267.15 157.323 267.472 157.569C267.794 157.812 268.188 157.933 268.654 157.933C269.14 157.933 269.546 157.805 269.871 157.549C270.199 157.29 270.446 156.942 270.61 156.505C270.777 156.065 270.861 155.576 270.861 155.037C270.861 154.505 270.779 154.026 270.615 153.599C270.454 153.169 270.209 152.829 269.881 152.579C269.556 152.327 269.147 152.2 268.654 152.2C268.182 152.2 267.784 152.32 267.462 152.56C267.141 152.796 266.898 153.128 266.733 153.555C266.569 153.978 266.487 154.472 266.487 155.037ZM274.964 148.733V158.82H273.801V148.733H274.964ZM280.265 158.978C279.536 158.978 278.907 158.817 278.378 158.495C277.853 158.17 277.447 157.717 277.162 157.136C276.879 156.551 276.738 155.871 276.738 155.096C276.738 154.321 276.879 153.638 277.162 153.047C277.447 152.453 277.845 151.99 278.354 151.658C278.866 151.324 279.464 151.156 280.147 151.156C280.541 151.156 280.93 151.222 281.314 151.353C281.698 151.484 282.048 151.698 282.363 151.993C282.678 152.286 282.929 152.673 283.117 153.156C283.304 153.638 283.397 154.233 283.397 154.939V155.431H277.566V154.427H282.215C282.215 154 282.13 153.619 281.959 153.284C281.792 152.949 281.552 152.685 281.24 152.491C280.931 152.297 280.567 152.2 280.147 152.2C279.684 152.2 279.283 152.315 278.945 152.545C278.61 152.772 278.352 153.067 278.172 153.432C277.991 153.796 277.901 154.187 277.901 154.604V155.274C277.901 155.845 277.999 156.329 278.196 156.727C278.396 157.121 278.674 157.421 279.029 157.628C279.383 157.832 279.795 157.933 280.265 157.933C280.57 157.933 280.846 157.891 281.092 157.805C281.342 157.717 281.557 157.585 281.738 157.411C281.918 157.234 282.058 157.014 282.156 156.751L283.279 157.067C283.161 157.447 282.962 157.782 282.683 158.071C282.404 158.357 282.059 158.58 281.649 158.741C281.238 158.899 280.777 158.978 280.265 158.978ZM285.166 158.82V151.255H286.289V152.437H286.387C286.545 152.033 286.799 151.719 287.151 151.496C287.502 151.269 287.924 151.156 288.416 151.156C288.916 151.156 289.331 151.269 289.663 151.496C289.997 151.719 290.259 152.033 290.446 152.437H290.524C290.718 152.046 291.009 151.736 291.396 151.506C291.784 151.273 292.248 151.156 292.79 151.156C293.467 151.156 294.02 151.368 294.45 151.791C294.88 152.212 295.095 152.867 295.095 153.757V158.82H293.933V153.757C293.933 153.198 293.78 152.799 293.475 152.56C293.169 152.32 292.81 152.2 292.396 152.2C291.864 152.2 291.452 152.361 291.16 152.683C290.868 153.001 290.721 153.405 290.721 153.895V158.82H289.539V153.638C289.539 153.208 289.4 152.862 289.121 152.599C288.842 152.333 288.482 152.2 288.042 152.2C287.74 152.2 287.458 152.281 287.195 152.442C286.935 152.602 286.725 152.826 286.564 153.111C286.407 153.394 286.328 153.721 286.328 154.092V158.82H285.166ZM302.284 154.269V158.82H301.122V151.255H302.245V152.437H302.343C302.52 152.052 302.79 151.744 303.151 151.511C303.512 151.274 303.978 151.156 304.55 151.156C305.062 151.156 305.51 151.261 305.894 151.471C306.278 151.678 306.577 151.993 306.791 152.417C307.004 152.837 307.111 153.369 307.111 154.013V158.82H305.948V154.092C305.948 153.497 305.794 153.034 305.485 152.703C305.177 152.368 304.753 152.2 304.215 152.2C303.844 152.2 303.512 152.281 303.22 152.442C302.931 152.602 302.703 152.837 302.535 153.146C302.368 153.455 302.284 153.829 302.284 154.269ZM312.308 158.978C311.625 158.978 311.026 158.815 310.511 158.49C309.998 158.165 309.598 157.71 309.309 157.126C309.023 156.541 308.88 155.858 308.88 155.077C308.88 154.289 309.023 153.601 309.309 153.013C309.598 152.425 309.998 151.969 310.511 151.644C311.026 151.319 311.625 151.156 312.308 151.156C312.991 151.156 313.589 151.319 314.101 151.644C314.617 151.969 315.017 152.425 315.303 153.013C315.592 153.601 315.737 154.289 315.737 155.077C315.737 155.858 315.592 156.541 315.303 157.126C315.017 157.71 314.617 158.165 314.101 158.49C313.589 158.815 312.991 158.978 312.308 158.978ZM312.308 157.933C312.827 157.933 313.254 157.8 313.589 157.534C313.924 157.268 314.172 156.919 314.333 156.485C314.494 156.052 314.574 155.582 314.574 155.077C314.574 154.571 314.494 154.1 314.333 153.663C314.172 153.226 313.924 152.873 313.589 152.604C313.254 152.335 312.827 152.2 312.308 152.2C311.79 152.2 311.363 152.335 311.028 152.604C310.693 152.873 310.445 153.226 310.284 153.663C310.123 154.1 310.043 154.571 310.043 155.077C310.043 155.582 310.123 156.052 310.284 156.485C310.445 156.919 310.693 157.268 311.028 157.534C311.363 157.8 311.79 157.933 312.308 157.933ZM320.801 151.255V152.24H316.88V151.255H320.801ZM318.023 149.442H319.186V156.653C319.186 156.981 319.233 157.227 319.328 157.392C319.427 157.553 319.552 157.661 319.703 157.717C319.857 157.769 320.02 157.796 320.19 157.796C320.318 157.796 320.423 157.789 320.506 157.776C320.588 157.759 320.653 157.746 320.703 157.736L320.939 158.781C320.86 158.81 320.75 158.84 320.609 158.869C320.468 158.902 320.289 158.919 320.072 158.919C319.744 158.919 319.422 158.848 319.107 158.707C318.795 158.566 318.535 158.35 318.329 158.061C318.125 157.773 318.023 157.408 318.023 156.968V149.442ZM329.741 151.255V152.24H325.82V151.255H329.741ZM326.963 149.442H328.125V156.653C328.125 156.981 328.173 157.227 328.268 157.392C328.367 157.553 328.491 157.661 328.642 157.717C328.797 157.769 328.959 157.796 329.13 157.796C329.258 157.796 329.363 157.789 329.445 157.776C329.527 157.759 329.593 157.746 329.642 157.736L329.879 158.781C329.8 158.81 329.69 158.84 329.549 158.869C329.407 158.902 329.228 158.919 329.012 158.919C328.683 158.919 328.362 158.848 328.046 158.707C327.734 158.566 327.475 158.35 327.268 158.061C327.065 157.773 326.963 157.408 326.963 156.968V149.442ZM332.814 154.269V158.82H331.652V148.733H332.814V152.437H332.913C333.09 152.046 333.356 151.736 333.711 151.506C334.069 151.273 334.545 151.156 335.139 151.156C335.655 151.156 336.106 151.259 336.493 151.466C336.881 151.67 337.181 151.984 337.395 152.407C337.612 152.827 337.72 153.363 337.72 154.013V158.82H336.558V154.092C336.558 153.491 336.402 153.026 336.09 152.698C335.781 152.366 335.352 152.2 334.804 152.2C334.423 152.2 334.082 152.281 333.78 152.442C333.481 152.602 333.244 152.837 333.07 153.146C332.9 153.455 332.814 153.829 332.814 154.269ZM343.018 158.978C342.289 158.978 341.661 158.817 341.132 158.495C340.607 158.17 340.201 157.717 339.915 157.136C339.633 156.551 339.492 155.871 339.492 155.096C339.492 154.321 339.633 153.638 339.915 153.047C340.201 152.453 340.598 151.99 341.107 151.658C341.62 151.324 342.217 151.156 342.9 151.156C343.294 151.156 343.683 151.222 344.068 151.353C344.452 151.484 344.801 151.698 345.117 151.993C345.432 152.286 345.683 152.673 345.87 153.156C346.057 153.638 346.151 154.233 346.151 154.939V155.431H340.319V154.427H344.969C344.969 154 344.884 153.619 344.713 153.284C344.545 152.949 344.306 152.685 343.994 152.491C343.685 152.297 343.321 152.2 342.9 152.2C342.437 152.2 342.037 152.315 341.698 152.545C341.364 152.772 341.106 153.067 340.925 153.432C340.745 153.796 340.654 154.187 340.654 154.604V155.274C340.654 155.845 340.753 156.329 340.95 156.727C341.15 157.121 341.428 157.421 341.782 157.628C342.137 157.832 342.549 157.933 343.018 157.933C343.324 157.933 343.6 157.891 343.846 157.805C344.095 157.717 344.311 157.585 344.491 157.411C344.672 157.234 344.811 157.014 344.91 156.751L346.033 157.067C345.915 157.447 345.716 157.782 345.437 158.071C345.158 158.357 344.813 158.58 344.402 158.741C343.992 158.899 343.531 158.978 343.018 158.978ZM351.82 161.657V151.255H352.943V152.456H353.081C353.166 152.325 353.285 152.158 353.436 151.954C353.59 151.747 353.81 151.563 354.096 151.402C354.385 151.238 354.775 151.156 355.268 151.156C355.905 151.156 356.466 151.315 356.952 151.634C357.438 151.952 357.818 152.404 358.09 152.988C358.363 153.573 358.499 154.262 358.499 155.057C358.499 155.858 358.363 156.553 358.09 157.14C357.818 157.725 357.44 158.178 356.957 158.5C356.475 158.818 355.918 158.978 355.288 158.978C354.802 158.978 354.413 158.897 354.12 158.736C353.828 158.572 353.603 158.387 353.446 158.18C353.288 157.97 353.166 157.796 353.081 157.658H352.983V161.657H351.82ZM352.963 155.037C352.963 155.609 353.047 156.113 353.214 156.549C353.382 156.983 353.626 157.323 353.948 157.569C354.27 157.812 354.664 157.933 355.13 157.933C355.616 157.933 356.022 157.805 356.347 157.549C356.675 157.29 356.921 156.942 357.085 156.505C357.253 156.065 357.337 155.576 357.337 155.037C357.337 154.505 357.255 154.026 357.09 153.599C356.929 153.169 356.685 152.829 356.356 152.579C356.031 152.327 355.623 152.2 355.13 152.2C354.657 152.2 354.26 152.32 353.938 152.56C353.616 152.796 353.373 153.128 353.209 153.555C353.045 153.978 352.963 154.472 352.963 155.037ZM363.444 158.978C362.715 158.978 362.086 158.817 361.558 158.495C361.032 158.17 360.627 157.717 360.341 157.136C360.059 156.551 359.918 155.871 359.918 155.096C359.918 154.321 360.059 153.638 360.341 153.047C360.627 152.453 361.024 151.99 361.533 151.658C362.045 151.324 362.643 151.156 363.326 151.156C363.72 151.156 364.109 151.222 364.493 151.353C364.877 151.484 365.227 151.698 365.542 151.993C365.858 152.286 366.109 152.673 366.296 153.156C366.483 153.638 366.577 154.233 366.577 154.939V155.431H360.745V154.427H365.395C365.395 154 365.309 153.619 365.139 153.284C364.971 152.949 364.731 152.685 364.419 152.491C364.111 152.297 363.746 152.2 363.326 152.2C362.863 152.2 362.462 152.315 362.124 152.545C361.789 152.772 361.531 153.067 361.351 153.432C361.17 153.796 361.08 154.187 361.08 154.604V155.274C361.08 155.845 361.178 156.329 361.376 156.727C361.576 157.121 361.853 157.421 362.208 157.628C362.563 157.832 362.975 157.933 363.444 157.933C363.75 157.933 364.025 157.891 364.272 157.805C364.521 157.717 364.736 157.585 364.917 157.411C365.097 157.234 365.237 157.014 365.336 156.751L366.459 157.067C366.34 157.447 366.142 157.782 365.863 158.071C365.583 158.357 365.239 158.58 364.828 158.741C364.418 158.899 363.956 158.978 363.444 158.978ZM368.345 158.82V151.255H369.468V152.397H369.547C369.685 152.023 369.934 151.719 370.295 151.486C370.657 151.253 371.064 151.136 371.517 151.136C371.602 151.136 371.709 151.138 371.837 151.141C371.965 151.145 372.062 151.149 372.128 151.156V152.338C372.088 152.328 371.998 152.314 371.857 152.294C371.719 152.271 371.573 152.259 371.418 152.259C371.051 152.259 370.722 152.337 370.433 152.491C370.148 152.642 369.921 152.852 369.754 153.121C369.589 153.387 369.507 153.691 369.507 154.032V158.82H368.345ZM378.864 152.949L377.82 153.244C377.755 153.07 377.658 152.901 377.53 152.737C377.405 152.57 377.234 152.432 377.017 152.323C376.801 152.215 376.523 152.161 376.185 152.161C375.722 152.161 375.336 152.268 375.028 152.481C374.722 152.691 374.569 152.959 374.569 153.284C374.569 153.573 374.675 153.801 374.885 153.968C375.095 154.136 375.423 154.275 375.87 154.387L376.993 154.663C377.669 154.827 378.173 155.078 378.505 155.417C378.837 155.751 379.002 156.183 379.002 156.712C379.002 157.145 378.878 157.533 378.628 157.874C378.382 158.216 378.037 158.485 377.594 158.682C377.15 158.879 376.635 158.978 376.047 158.978C375.275 158.978 374.637 158.81 374.131 158.475C373.625 158.14 373.305 157.651 373.171 157.007L374.274 156.732C374.379 157.139 374.578 157.444 374.87 157.648C375.165 157.851 375.551 157.953 376.027 157.953C376.569 157.953 376.999 157.838 377.318 157.608C377.64 157.375 377.801 157.096 377.801 156.771C377.801 156.508 377.709 156.288 377.525 156.111C377.341 155.93 377.058 155.796 376.678 155.707L375.417 155.412C374.724 155.247 374.215 154.993 373.89 154.648C373.568 154.3 373.407 153.865 373.407 153.343C373.407 152.916 373.527 152.538 373.767 152.21C374.01 151.882 374.34 151.624 374.757 151.437C375.177 151.25 375.653 151.156 376.185 151.156C376.934 151.156 377.521 151.32 377.948 151.649C378.378 151.977 378.684 152.41 378.864 152.949ZM383.826 158.978C383.143 158.978 382.543 158.815 382.028 158.49C381.516 158.165 381.115 157.71 380.826 157.126C380.54 156.541 380.397 155.858 380.397 155.077C380.397 154.289 380.54 153.601 380.826 153.013C381.115 152.425 381.516 151.969 382.028 151.644C382.543 151.319 383.143 151.156 383.826 151.156C384.509 151.156 385.106 151.319 385.618 151.644C386.134 151.969 386.535 152.425 386.82 153.013C387.109 153.601 387.254 154.289 387.254 155.077C387.254 155.858 387.109 156.541 386.82 157.126C386.535 157.71 386.134 158.165 385.618 158.49C385.106 158.815 384.509 158.978 383.826 158.978ZM383.826 157.933C384.344 157.933 384.771 157.8 385.106 157.534C385.441 157.268 385.689 156.919 385.85 156.485C386.011 156.052 386.091 155.582 386.091 155.077C386.091 154.571 386.011 154.1 385.85 153.663C385.689 153.226 385.441 152.873 385.106 152.604C384.771 152.335 384.344 152.2 383.826 152.2C383.307 152.2 382.88 152.335 382.545 152.604C382.21 152.873 381.962 153.226 381.801 153.663C381.64 154.1 381.56 154.571 381.56 155.077C381.56 155.582 381.64 156.052 381.801 156.485C381.962 156.919 382.21 157.268 382.545 157.534C382.88 157.8 383.307 157.933 383.826 157.933ZM390.19 154.269V158.82H389.028V151.255H390.151V152.437H390.25C390.427 152.052 390.696 151.744 391.057 151.511C391.419 151.274 391.885 151.156 392.456 151.156C392.968 151.156 393.417 151.261 393.801 151.471C394.185 151.678 394.484 151.993 394.697 152.417C394.911 152.837 395.017 153.369 395.017 154.013V158.82H393.855V154.092C393.855 153.497 393.701 153.034 393.392 152.703C393.083 152.368 392.66 152.2 392.121 152.2C391.75 152.2 391.419 152.281 391.126 152.442C390.837 152.602 390.609 152.837 390.442 153.146C390.274 153.455 390.19 153.829 390.19 154.269Z" fill="#09CC7F"/>
</g>
<defs>
<clipPath id="clip0_2_2">
<rect width="416.23" height="175.24" fill="white"/>
</clipPath>
</defs>
</svg>
